<svg width="308" height="65" viewBox="0 0 308 65" fill="none" xmlns="http://www.w3.org/2000/svg">
<path d="M37.6892 11.959C39.4892 14.967 41.2742 17.975 43.0782 20.983C43.5542 21.961 44.0052 22.963 44.5322 23.916C47.3902 29.055 50.7992 33.843 53.2802 39.182C49.7962 39.157 46.3112 39.157 42.8022 39.132C41.0722 36.224 39.3432 33.316 37.6382 30.409C35.8582 27.376 34.3542 24.192 32.0982 21.46C30.9247 18.7981 29.4709 16.2688 27.7612 13.915C22.9252 22.086 18.2342 29.982 13.5502 37.853C12.8732 39.006 13.1502 39.453 14.4772 39.482C16.6832 39.507 18.8642 39.607 21.0702 39.682C19.3152 42.69 17.5612 45.723 15.7812 48.731L5.5812 48.656C0.718198 48.606 -1.4128 45.222 0.994197 41.111C8.48753 28.3024 16.0569 15.5187 23.7022 2.76003C25.9342 -0.977966 29.6932 -0.877966 32.0242 2.81003C33.9802 5.86803 35.8342 8.92203 37.6892 11.959Z" fill="#04B0F5"/>
<path d="M37.6907 11.959C39.4207 9.05105 41.1247 6.11805 42.9047 3.23605C45.5367 -0.999953 49.1717 -1.04995 51.7287 3.21105C59.2741 15.7944 66.7607 28.403 74.1887 41.037C76.5947 45.123 74.4397 48.637 69.6517 48.682C66.2677 48.732 62.8587 48.732 59.4747 48.757H48.7947C41.5257 48.707 34.2557 48.632 27.0117 48.582L32.4257 39.257C35.9097 39.207 39.3697 39.182 42.8537 39.132C46.3377 39.157 49.8227 39.157 53.3317 39.182L60.1997 39.332C61.7287 39.357 62.2557 38.881 61.3777 37.402C57.0164 30.0574 52.6717 22.696 48.3437 15.318C47.6437 14.14 47.0907 14.29 46.4637 15.343C45.3637 17.223 44.2327 19.103 43.1297 20.983C41.2997 17.975 39.4947 14.967 37.6907 11.959Z" fill="#8A8C8F"/>
<path d="M15.8092 48.757C17.5642 45.749 19.3182 42.716 21.0982 39.708C24.7832 33.617 28.4682 27.551 32.1532 21.459C34.4092 24.191 35.9132 27.4 37.6932 30.408C35.9382 33.366 34.1842 36.299 32.4292 39.257L27.0092 48.581C25.3109 50.83 23.8809 53.2695 22.7482 55.85C32.2232 55.85 41.3232 55.825 50.4482 55.875C52.5032 55.9 52.6792 55.275 51.6482 53.694C50.6202 52.094 49.7432 50.41 48.7902 48.781H59.4732C61.1732 51.714 62.9322 54.622 64.5872 57.554C66.7932 61.49 64.8632 64.949 60.4262 64.949C45.3109 64.999 30.1955 64.999 15.0802 64.949C10.6682 64.949 8.66319 61.49 10.7942 57.579C12.3722 54.598 14.1272 51.69 15.8092 48.757Z" fill="#FF003F"/>
<path d="M87.0283 14.8916H82.3042V45H87.0283V35.9717L91.7524 30.8066L101.642 45H107.458L94.9858 27.3633L106.597 14.8916H100.571L87.0283 29.5259V14.8916ZM116.927 40.6958V31.4575H130.049V27.1533H116.927V19.1958H133.493V14.8916H112.203V45H133.913V40.6958H116.927ZM142.101 14.8916H136.936L147.896 34.25V45H152.62V34.25L163.601 14.8916H158.436L150.269 29.2949L142.101 14.8916Z" fill="#FF003F"/>
<path d="M177.584 45H182.309L194.129 14.8916H189.195L179.936 38.9741L170.698 14.8916H165.743L177.584 45ZM192.828 45H197.762L200.995 37.0425H214.328L217.561 45H222.495L210.023 14.8916H205.299L192.828 45ZM207.672 20.2666L212.606 32.7383H202.717L207.672 20.2666ZM247.019 45V40.6958H232.405V14.8916H227.681V45H247.019ZM263.144 41.1367C261.002 41.1367 259.133 40.3389 257.559 38.7432C255.984 37.1475 255.207 35.2158 255.207 32.9692V14.8916H250.462V32.9692C250.462 36.4126 251.68 39.3311 254.157 41.7666C256.635 44.2021 259.616 45.4199 263.144 45.4199C266.671 45.4199 269.652 44.2231 272.13 41.7876C274.607 39.3521 275.846 36.4126 275.846 32.9692V14.8916H271.101V32.9692C271.101 35.1948 270.303 37.1265 268.729 38.7222C267.154 40.3389 265.285 41.1367 263.144 41.1367ZM288.717 40.6958V31.4575H301.839V27.1533H288.717V19.1958H305.283V14.8916H283.993V45H305.703V40.6958H288.717Z" fill="#1EB4F0"/>
</svg>
